<svg id="Layer_1" data-name="Layer 1" xmlns="http://www.w3.org/2000/svg" viewBox="0 0 270.51 353.59"><defs><style>.cls-1{fill:#fff;}</style></defs><title>logo_lt</title><path class="cls-1" d="M124.83,208.9a2.27,2.27,0,0,1-2.23-1.85l-1.85-9.49c-1.1-2.56-4.66-5.38-11.28-5.46A11.52,11.52,0,0,1,99,186a11.39,11.39,0,0,1-.09-9.82l.34-.81-19.71-8.23a2.3,2.3,0,0,1-1.23-1.24,2.24,2.24,0,0,1,0-1.74,2.26,2.26,0,0,1,2.1-1.41,2.23,2.23,0,0,1,.88.18l39.5,16.49a2.27,2.27,0,0,1,1.36,1.67l2.94,15.07a12.23,12.23,0,0,1,.36,1.32,2.44,2.44,0,0,1,0,.55l1.56,8.14a2.29,2.29,0,0,1-1.81,2.68A3.42,3.42,0,0,1,124.83,208.9Zm-21.66-31a7,7,0,0,0-.06,6,7,7,0,0,0,6.42,3.58,22.28,22.28,0,0,1,8.21,1.62l1.49.63-1.28-6.6-14.45-6Z" transform="translate(-14.74 -23.72)"/><path class="cls-1" d="M240.55,123.81c-1.52,0-3.05-.07-4.59-.18l-.43,0a77.69,77.69,0,0,1-27.72-7.68,2.64,2.64,0,0,1-.63-.31,59.7,59.7,0,0,1-7.38-4.41c-10.62-7.57-14.51-16.39-10.66-24.21L209.7,45.18l-1.34-1c-12.66,11.06-33.87,29.56-57.65,37.26l-.44.08h-.46l-.43-.07c-23.88-7.72-45.07-26.22-57.74-37.28l-1.34,1L110.87,87c3.84,7.82-.05,16.64-10.67,24.21a59.35,59.35,0,0,1-7.28,4.36,3.09,3.09,0,0,1-.63.32,78,78,0,0,1-27.81,7.72l-.44,0c-1.53.11-3.07.18-4.59.18-11.63,0-21.08-3.34-27.33-9.66a2.29,2.29,0,0,1,1.62-3.89,2.25,2.25,0,0,1,1.62.68c5.4,5.46,13.7,8.34,24,8.34h1.28l-.48-1.2c-3.54-8.74-8-25.46-10.06-43.1-2.07-17.87-2-40.79,9.73-48.52a15.45,15.45,0,0,1,8.5-2.75c6,0,10.76,3.85,13.94,6.4l.68.55c2.86,2.33,6,5,9.54,8.17,14.59,12.76,34.57,30.24,57.22,37.88l.28.09.28-.09C173,69.07,192.92,51.6,207.5,38.84c3.57-3.13,6.68-5.84,9.49-8.12l.74-.6c3.18-2.55,8-6.4,13.93-6.4a15.45,15.45,0,0,1,8.5,2.75C251.94,34.2,252,57.12,249.9,75c-2,17.65-6.53,34.37-10.07,43.1l-.48,1.2h1.29c10.3,0,18.6-2.88,24-8.34a2.25,2.25,0,0,1,1.62-.68,2.28,2.28,0,0,1,1.62,3.89C261.63,120.47,252.18,123.81,240.55,123.81ZM229.11,60.46a2.28,2.28,0,0,1,.87,4.39c-7,2.87-20.79,21-23,35.21-.84,5.28.06,9.19,2.66,11.62a73.74,73.74,0,0,0,24.24,7.21l.63.07.26-.57c3.68-8,8.51-25.64,10.62-43.92,2.68-23.12-.13-39.22-7.7-44.18a10.7,10.7,0,0,0-6-2c-3.66,0-7.09,2.15-11.11,5.37l-.16.12-.13.22-27,55c-3.46,7,3.22,13.79,7.52,17.19l1.57,1.25-.17-2a25.23,25.23,0,0,1,.28-6.11c2.44-15.51,16.62-35,25.82-38.72A2.25,2.25,0,0,1,229.11,60.46ZM68.31,28.31a10.67,10.67,0,0,0-6,2c-7.57,5-10.38,21.06-7.71,44.18,2.12,18.3,7,36,10.63,43.92l.26.57.62-.07a74.5,74.5,0,0,0,24-7.07c2.81-2.57,3.7-6.48,2.87-11.76-2.24-14.23-16-32.34-23-35.21a2.29,2.29,0,0,1-1.25-3,2.26,2.26,0,0,1,2.12-1.42,2.34,2.34,0,0,1,.86.16C81,64.38,95.13,83.83,97.57,99.35a25.62,25.62,0,0,1,.28,6.1l-.17,2,1.57-1.25c4.29-3.4,11-10.16,7.52-17.19L79.64,33.86l-.18-.15C75.39,30.46,72,28.31,68.31,28.31Z" transform="translate(-14.74 -23.72)"/><path class="cls-1" d="M17,161.23a2.22,2.22,0,0,1-1.29-.41,2.27,2.27,0,0,1-.58-3.17C19.08,152,40.28,133.8,60.79,133h0a2.29,2.29,0,0,1,1.77,3.83,2.24,2.24,0,0,1-1.59.73c-18.68.75-39,18.29-42.07,22.72A2.29,2.29,0,0,1,17,161.23Z" transform="translate(-14.74 -23.72)"/><path class="cls-1" d="M123.14,355.56a2.23,2.23,0,0,1-.88-.18c-18.07-7.62-31.82-18.15-40.88-31.3-10-14.53-14.7-32.8-13.94-54.3a2.29,2.29,0,0,1,4-1.48,2.23,2.23,0,0,1,.61,1.64c-1.4,39.3,15.62,65.87,52,81.23a2.28,2.28,0,0,1,1.23,1.25,2.24,2.24,0,0,1,0,1.74A2.27,2.27,0,0,1,123.14,355.56Z" transform="translate(-14.74 -23.72)"/><path class="cls-1" d="M57.35,307.6a2.35,2.35,0,0,1-1.7-.75c-20.26-22.49-29.82-70.46-12.29-101l1.4-2.44-2.53,1.24C33.37,209,27.57,219.74,25.1,228.38A2.29,2.29,0,0,1,22.91,230a2.72,2.72,0,0,1-.63-.08,2.33,2.33,0,0,1-1.37-1.09,2.29,2.29,0,0,1-.19-1.74c4.09-14.33,14.64-28.8,29-28.83a2.28,2.28,0,0,1,1.79,3.7c-21.2,26.76-13.55,78.35,7.58,101.8a2.27,2.27,0,0,1-.17,3.23A2.22,2.22,0,0,1,57.35,307.6Z" transform="translate(-14.74 -23.72)"/><path class="cls-1" d="M175.17,208.9a3.13,3.13,0,0,1-.43,0,2.29,2.29,0,0,1-1.81-2.68l1.54-7.92a4.14,4.14,0,0,1,0-.77,8.85,8.85,0,0,1,.34-1.22l3-15.17a2.23,2.23,0,0,1,1.36-1.66l39.5-16.5a2.23,2.23,0,0,1,.88-.18,2.28,2.28,0,0,1,.88,4.39l-19.71,8.23.34.8A11.34,11.34,0,0,1,201,186a11.51,11.51,0,0,1-10.44,6.09c-6.61.08-10.18,2.9-11.22,5.28l-1.9,9.67A2.29,2.29,0,0,1,175.17,208.9Zm6.89-25.72-1.29,6.6,1.49-.63a22.32,22.32,0,0,1,8.21-1.62,6.55,6.55,0,0,0,6.37-9.59l-.34-.8Z" transform="translate(-14.74 -23.72)"/><path class="cls-1" d="M150,305.48a32,32,0,0,1-23.29-10.21,51.43,51.43,0,0,1-21.4-22.36L90.54,260.79C87.13,258,85,253.14,83.72,245l-.08-.49-.46-.18a2.17,2.17,0,0,1-.41-.19l-18.6-11.74c-6.18-3.9-7.75-15.94-4.94-37.88,1.27-9.88,3.46-21.61,6.51-34.86l.36-1.56-1.5.56c-18.8,7-35.57,20.72-44.85,36.79a2.26,2.26,0,0,1-2,1.14,2.27,2.27,0,0,1-2-3.42c8.88-15.38,24.1-28.74,41.75-36.64a76.43,76.43,0,0,1,31.31-7.14A56.65,56.65,0,0,1,112,154.13c16.61,7.38,23.38,22.49,27,33.22l.75,2.21,8.12-20.07.22-.41c.05-.07.27-.3.27-.3l.34-.3.38-.2.43-.13.45,0,.45,0,.4.13.4.2.38.3.27.35.29.53,8,19.9.75-2.21c3.65-10.73,10.41-25.84,27-33.22a56.71,56.71,0,0,1,23.16-4.75,76.56,76.56,0,0,1,31.31,7.14c17.66,7.9,32.87,21.26,41.75,36.64a2.29,2.29,0,0,1-.83,3.12,2.29,2.29,0,0,1-1.14.3h0a2.29,2.29,0,0,1-2-1.14c-9.28-16.07-26.05-29.83-44.85-36.79l-1.5-.56.36,1.57c3,13.21,5.24,24.93,6.51,34.86,2.82,21.93,1.25,34-4.94,37.87l-18.59,11.73a2,2,0,0,1-.42.2l-.46.18-.08.49c-1.3,8.15-3.4,13-6.81,15.8l-14.55,11.82a52.29,52.29,0,0,1-21.39,22.47A32.47,32.47,0,0,1,150,305.48Zm-17.65-11.09,1.38,1a26.78,26.78,0,0,0,32.54,0l1.39-1L150,289ZM155.86,274a10.24,10.24,0,0,0-3,.43l-.62.18V285l19.46,5.91.32-.19c4.39-2.5,19-12.19,22.33-31.69a2.28,2.28,0,0,1,2.25-1.89,2.34,2.34,0,0,1,2.25,2.66c-.12.71-.26,1.41-.41,2.1l-.52,2.42,8.63-7c4.71-3.84,5.67-14.91,6.78-27.73a2.29,2.29,0,1,1,4.57.16c-.23,2.71-.44,5.09-.67,7.37l-.17,1.77,16.3-10.29c3.23-2,9.29-13.1-4.45-71.5l-.11-.51-.5-.13A67.28,67.28,0,0,0,210.93,154a51.72,51.72,0,0,0-21.1,4.3c-16.94,7.53-22.55,24.45-25.24,32.58-1.52,4.59-2.15,6.18-4.24,6.25h0c-1.35,0-2.32-.82-3-2.45L150,176.47l-7.35,18.21c-.66,1.63-1.64,2.45-2.9,2.45-2.18-.07-2.81-1.65-4.33-6.22-2.7-8.16-8.31-25.08-25.25-32.61a51.69,51.69,0,0,0-21.1-4.3,67.15,67.15,0,0,0-17.4,2.39l-.51.13-.11.51c-13.73,58.39-7.68,69.46-4.44,71.5l16.3,10.29-.18-1.77c-.22-2.28-.43-4.66-.65-7.14a2.36,2.36,0,0,1,2.06-2.7h0a2.33,2.33,0,0,1,2.45,2.07c1.13,13.08,2.1,24.14,6.81,28l8.61,7-.51-2.4c-.15-.69-.29-1.39-.41-2.1a2.28,2.28,0,0,1,1.86-2.63h.09a2.35,2.35,0,0,1,2.55,1.86c3.37,19.62,17.94,29.22,22.33,31.7l.32.18L147.72,285V274.56l-.62-.18a10.17,10.17,0,0,0-2.95-.43,9.74,9.74,0,0,0-7.05,2.78,2.28,2.28,0,0,1-1.78.85,2.22,2.22,0,0,1-1.13-.3c-.7-.4-6.83-4.09-7.66-9.53a8.58,8.58,0,0,1,2.54-7.33c5.69-6.15,15.45-6.81,19.38-6.81.7,0,1.23,0,1.5,0s.9,0,1.6,0c3.93,0,13.7.66,19.39,6.81a8.6,8.6,0,0,1,2.53,7.33c-.82,5.44-7,9.13-7.65,9.53a2.3,2.3,0,0,1-2.92-.55A9.71,9.71,0,0,0,155.86,274Zm0-4.57a15.14,15.14,0,0,1,8.53,2.63l.54.37.51-.41c1.44-1.18,3.21-3,3.5-4.92a4.18,4.18,0,0,0-1.38-3.53c-4.72-5.11-14.06-5.37-15.89-5.37-.59,0-1.11,0-1.52.05s-.93,0-1.68,0c-3.35,0-11.61.52-16.07,5.35a4.18,4.18,0,0,0-1.38,3.54c.31,2,2.33,3.95,3.51,4.91l.51.41.53-.37a15.22,15.22,0,0,1,8.53-2.63,15,15,0,0,1,5.56,1.07l.32.13.32-.13A15,15,0,0,1,155.88,269.38Z" transform="translate(-14.74 -23.72)"/><path class="cls-1" d="M283,161.23a2.3,2.3,0,0,1-1.88-1c-3.08-4.43-23.39-22-42.06-22.72a2.27,2.27,0,0,1-2.19-2.37,2.3,2.3,0,0,1,2.27-2.19c20.61.83,41.81,19,45.73,24.68a2.29,2.29,0,0,1-.57,3.18A2.32,2.32,0,0,1,283,161.23Z" transform="translate(-14.74 -23.72)"/><path class="cls-1" d="M176.86,355.56a2.28,2.28,0,0,1-2.1-1.4,2.24,2.24,0,0,1,0-1.74,2.28,2.28,0,0,1,1.23-1.25c36.41-15.36,53.42-41.93,52-81.23a2.27,2.27,0,0,1,2.2-2.36h0a2.29,2.29,0,0,1,2.36,2.2c.77,21.5-3.92,39.77-13.93,54.3-9.07,13.15-22.82,23.68-40.88,31.3A2.32,2.32,0,0,1,176.86,355.56Z" transform="translate(-14.74 -23.72)"/><path class="cls-1" d="M150.2,377.28l-.65,0a2.28,2.28,0,0,1-2.32-2.24c-.48-30.35-29-52.3-37.79-58.31A2.28,2.28,0,0,1,112,313c6.78,4.65,29.48,21.74,37.15,46.18l.83,2.63.83-2.63c7.68-24.46,30.38-41.53,37.15-46.18a2.28,2.28,0,1,1,2.59,3.76c-8.75,6-37.33,28-37.79,58.31a2.3,2.3,0,0,1-2.27,2.25Z" transform="translate(-14.74 -23.72)"/><path class="cls-1" d="M242.65,307.6a2.28,2.28,0,0,1-1.69-3.81c21.14-23.45,28.78-75,7.58-101.8a2.28,2.28,0,0,1,1.79-3.7c14.31,0,24.86,14.5,29,28.83a2.29,2.29,0,0,1-1.57,2.83,2.57,2.57,0,0,1-.62.08,2.29,2.29,0,0,1-2.2-1.65c-2.47-8.64-8.26-19.4-17.12-23.74l-2.54-1.24,1.4,2.45c17.53,30.54,8,78.51-12.29,101A2.28,2.28,0,0,1,242.65,307.6Z" transform="translate(-14.74 -23.72)"/></svg>