<svg id="Layer_2" data-name="Layer 2" xmlns="http://www.w3.org/2000/svg" viewBox="0 0 598.32 892.25"><defs><style>.cls-1{fill:none;stroke:#fff;stroke-miterlimit:10;}.cls-2{fill:#fff;}</style></defs><title>outline</title><path class="cls-1" d="M520.52,720s3.9-.41,4,1.47-3.9,1.76-3.9,1.76-4.55.59-4.47-1.11C516.22,720.23,520.52,720,520.52,720Z"/><polygon class="cls-1" points="488.91 780.54 494.43 774.89 42.2 776.93 53.88 780.5 488.91 780.54"/><path class="cls-1" d="M354.65,713.82l-.24.22a3.27,3.27,0,0,0-1.08,2.66l.06.78a3.27,3.27,0,0,0,1.61,2.58l.25.14a3.22,3.22,0,0,0,1.84.44l15.08-.93a3.27,3.27,0,0,0,2.34-1.22l.44-.55a3.26,3.26,0,0,0,.7-2.35h0a3.28,3.28,0,0,0-1.81-2.61l-.91-.45a3.35,3.35,0,0,0-1.62-.33l-14.66.8A3.28,3.28,0,0,0,354.65,713.82Z"/><path class="cls-1" d="M293.06,717.42l.68-.91a4.24,4.24,0,0,1,3.3-1.71l33-.87a4.23,4.23,0,0,1,3,1.16l.26.25a4.24,4.24,0,0,1,1.33,2.81v.21a4.27,4.27,0,0,1-1.32,3.37l-.28.26a4.21,4.21,0,0,1-2.79,1.16l-33.68,1.07a4.24,4.24,0,0,1-2.87-1h0a4.25,4.25,0,0,1-1.51-3.45h0A4.25,4.25,0,0,1,293.06,717.42Z"/><path class="cls-1" d="M239.09,719l.57-.78a3.68,3.68,0,0,1,2.91-1.51l36.11-.85a3.71,3.71,0,0,1,2.54.93l.27.24a3.68,3.68,0,0,1,1.25,2.86l0,1.74a3.72,3.72,0,0,1-1.46,2.86h0a3.67,3.67,0,0,1-2.09.75l-36.57,1.49a3.72,3.72,0,0,1-2.74-1l-.37-.36a3.71,3.71,0,0,1-1.11-2.7l0-1.49A3.73,3.73,0,0,1,239.09,719Z"/><path class="cls-1" d="M190.34,727.37l-.39-.27a3.81,3.81,0,0,1-1.62-3.21v-.15a3.86,3.86,0,0,1,.51-1.81l1.93-3.36a3.81,3.81,0,0,1,3.28-1.92l32.49-.25a3.76,3.76,0,0,1,2.72,1.12l.33.33a3.79,3.79,0,0,1,1.12,2.74l0,2.8a3.83,3.83,0,0,1-1,2.57h0a3.82,3.82,0,0,1-2.69,1.2l-34.32.91A3.77,3.77,0,0,1,190.34,727.37Z"/><ellipse class="cls-1" cx="149.28" cy="712.7" rx="4.26" ry="1.43"/><polygon class="cls-1" points="265.16 214.77 251.71 237.53 278.42 237.73 265.16 214.77"/><path class="cls-2" d="M266.94,231.63l1.75.46a3.07,3.07,0,0,1-1.55,2,4.62,4.62,0,0,1-4.77-.24,3.25,3.25,0,0,1-1.47-2.41,4.64,4.64,0,0,1,.34-2.68,3.47,3.47,0,0,1,2.17-1.85,5.18,5.18,0,0,1,3.28,0,2.89,2.89,0,0,1,1.93,1.87.42.42,0,0,1,0,.13c-.57.12-1.12.24-1.68.34a.16.16,0,0,1-.14-.07,1.84,1.84,0,0,0-2-1.18,2,2,0,0,0-2,1.59,4.68,4.68,0,0,0,0,2.2,1.93,1.93,0,0,0,1.95,1.47,1.89,1.89,0,0,0,2.07-1.47Z"/><path class="cls-2" d="M262,244.09a1.71,1.71,0,0,0,.82-.14c.16-.1.23-.32.23-.67v-1.2a.7.7,0,0,0-.17-.47.65.65,0,0,0-.48-.18.58.58,0,0,0-.5.22.77.77,0,0,0-.15.43v.76h-1.33v-.77a1.83,1.83,0,0,1,.16-.77,1.69,1.69,0,0,1,.43-.62,1.93,1.93,0,0,1,.63-.42,2.1,2.1,0,0,1,.79-.16,1.67,1.67,0,0,1,.9.22,2.12,2.12,0,0,1,.54.43,3.19,3.19,0,0,1,.23.32,1.89,1.89,0,0,1,.16.38,3.09,3.09,0,0,1,.09.52q0,.32,0,.75c0,.32,0,.58,0,.78a1.63,1.63,0,0,1-.1.5,1,1,0,0,1-.25.35,3.41,3.41,0,0,1-.45.31,2,2,0,0,1,.47.37,1.14,1.14,0,0,1,.25.39,2.18,2.18,0,0,1,.09.55c0,.21,0,.48,0,.81s0,.56,0,.76a3,3,0,0,1-.06.5,1.46,1.46,0,0,1-.1.35c-.05.09-.1.19-.17.3a2.16,2.16,0,0,1-.64.6,1.9,1.9,0,0,1-1,.24,2.37,2.37,0,0,1-.67-.1,1.89,1.89,0,0,1-.64-.34,1.81,1.81,0,0,1-.47-.61,2,2,0,0,1-.19-.93v-.75h1.33v.69a.77.77,0,0,0,.17.51.68.68,0,0,0,1,0,.81.81,0,0,0,.17-.54v-1.33a1.78,1.78,0,0,0,0-.44.55.55,0,0,0-.17-.27.79.79,0,0,0-.32-.13,3.64,3.64,0,0,0-.52,0Z"/><path class="cls-2" d="M265.26,242.1a2,2,0,0,1,.16-.84,2,2,0,0,1,.43-.62,1.87,1.87,0,0,1,.64-.4,2.05,2.05,0,0,1,1.49,0,1.87,1.87,0,0,1,.64.4,2,2,0,0,1,.43.62,2,2,0,0,1,.16.84v5.44a2,2,0,0,1-.16.83,1.9,1.9,0,0,1-.43.63,2,2,0,0,1-2.77,0,1.9,1.9,0,0,1-.43-.63,2,2,0,0,1-.16-.83Zm1.32,5.44a.65.65,0,0,0,.19.48.63.63,0,0,0,.47.18.62.62,0,0,0,.46-.18.65.65,0,0,0,.19-.48V242.1a.63.63,0,0,0-.19-.48.59.59,0,0,0-.46-.19.6.6,0,0,0-.47.19.63.63,0,0,0-.19.48Z"/><line class="cls-1" x1="25.63" y1="783.39" x2="528.45" y2="783.59"/><path class="cls-1" d="M253.27,691.55l-1.74.06L251.36,728l-75.74,2.64.11-36.21-2.13.05-.11,36.27-28.15-18.12.24,6.15-1.36,2,.16-2,1.2,0,10,.14.24,1-1-1.2-1.43-6.13,8.64,5.09L334.55,31.13l-120.9,672.4L185,703.25l121.5.84-5.79,21.4,26.66-390.72h-3s1.33-10.6,4.27-11.26c2.61-.6,2.72,1.3,2.72,1.3l.48,9.84-3.44.12,8.06,389.14,1.83-.07.11-35.94H340l-.17,35.88,80.52-4.43.14-34.92,2.06.07v34.85l8.32-.64-8.26-2.12-2.5-.88L389,705.09l-80.75.25-6.5-5.5L185,700.09l.25,4.25.13,5.5c-1.76,4-6.09,10.35-9.5,12.12l-2.38.13L52.62,727.21l-3.12,5.88h5.75l1.75-6L173.25,719l2.62-.53,6.62-3.25.68-1.43C322.33,715.42,389,705.09,389,705.09l-14.37,16.58-46.19-386.9,176.84,379.8s10.05-18.1,15-22.78c16.07-15.16,53.56-18.51,53.56-18.51l-.16,3S539,677.93,522,692.86c-4.89,4.28-14.39,21.64-14.39,21.64l8.93,2.59-4.08,4.66S186.75,741.84,28.31,739.21l-1-3.24,1.26-3c0,.8-2.07,2.93-1.26,3,112.92,5.12,514.07-20.28,514.07-20.28l-5.18-3.1,19.58-34.05-2,.46L533.7,712.59,541,680.28c-99.58,2.25-364.63,16.37-487.1,17.05l11.38,35.72L52.2,699.7s-11.6-1.24-25.13-1.58l.32-2.37c13.29,1,26.54,1.58,26.54,1.58L67.05,733.2"/><path class="cls-1" d="M224.58,263.92l7.28,7.28,31.8,8.37-.79,3.69L222.19,271.4,187.9,383,196,391l30.91,8.37-.7,3.49L185.6,390.63,156.22,508.12l6.15,3.62,28.22.27-.09,3.17-35.73-.09L131.61,642.88l-6.16,0v6.52l194-.35v-2.26h3.2l-.12,1.43,5.57-.12-.26-5.4-2.24.13v-3h-2L321.25,644l-1.74.5v-1.37l-187.9-.24C171.15,351.11,312.32,32.09,312.32,32.09l4.46.12,37.57,64.55-41,573.48L541,711l.51,1.32c-128,7.84-387.19,22.71-512.89,20.67L312.91,14.63l3.75,5.31,12.27,684.63,12.64,0L328.51,18.47l-.65,1.36L331,11.88h-20l5.12,7.95h11.66l1.67-5.08L541.47,712.34l-.08,3.35S511.49,759.6,486,783.18c0,0-16.44,11-33.76,12.94-20,2.26-56.74,4.39-79.43,9.69-38.33,9-81.08,42.9-112.69,61l-69.75.65s35.91-46.33,37.46-48.76c8.87-13.87-12-14.21-12-14.21s-73.06-5.39-105.26-9.36c-19.16-2.36-74.59-20-74.59-20l-2.52-42.25-1.15-34.5,1.48.16,1.23,34.51-6.79,6.16s2.66,28.28,7.75,35.92l1.73.69-7.26,67.55,23.8.16L67.47,797l-7.88-14.84"/><polyline class="cls-1" points="278.42 237.73 265.14 261.53 251.71 237.53"/><polyline class="cls-1" points="266.45 146.28 271.14 152.16 299.95 160.74 299.25 164.23 263.86 152.96"/></svg>